/* XPM */
static char * icon_xpm[] = {
"32 32 290 2",
"  	c None",
". 	c #0A2534",
"+ 	c #0A2533",
"@ 	c #06171F",
"# 	c #196086",
"$ 	c #146DA1",
"% 	c #0A2B3D",
"& 	c #040D11",
"* 	c #1C6A95",
"= 	c #126EA3",
"- 	c #1271A9",
"; 	c #1371A8",
"> 	c #071720",
", 	c #195F85",
"' 	c #126EA4",
") 	c #1270A7",
"! 	c #0A2C41",
"~ 	c #051319",
"{ 	c #1370A7",
"] 	c #0B2F42",
"^ 	c #19648B",
"/ 	c #06151C",
"( 	c #175A7E",
"_ 	c #1772A6",
": 	c #1B73A2",
"< 	c #1D73A1",
"[ 	c #0A2D41",
"} 	c #051117",
"| 	c #1C6B95",
"1 	c #24749C",
"2 	c #2C7597",
"3 	c #307693",
"4 	c #317693",
"5 	c #2F7694",
"6 	c #2A7598",
"7 	c #22749E",
"8 	c #0A2A3D",
"9 	c #071820",
"0 	c #175B80",
"a 	c #1471A8",
"b 	c #23749D",
"c 	c #3A788C",
"d 	c #427987",
"e 	c #457A84",
"f 	c #427986",
"g 	c #3C788B",
"h 	c #337791",
"i 	c #26749B",
"j 	c #1771A3",
"k 	c #0A2C3E",
"l 	c #146898",
"m 	c #287599",
"n 	c #38778D",
"o 	c #4F7B7D",
"p 	c #577C78",
"q 	c #5A7D75",
"r 	c #597D76",
"s 	c #567C79",
"t 	c #4E7B7E",
"u 	c #437986",
"v 	c #36778F",
"w 	c #0A2D40",
"x 	c #061720",
"y 	c #1470A5",
"z 	c #1672A6",
"A 	c #3D788A",
"B 	c #4C7B7F",
"C 	c #657F6D",
"D 	c #6C8069",
"E 	c #6E8067",
"F 	c #6D8068",
"G 	c #69806B",
"H 	c #607E71",
"I 	c #547C7A",
"J 	c #337690",
"K 	c #0D2D3F",
"L 	c #071B25",
"M 	c #081B24",
"N 	c #071A24",
"O 	c #136CA0",
"P 	c #297599",
"Q 	c #3E788A",
"R 	c #517C7C",
"S 	c #617E70",
"T 	c #6F8166",
"U 	c #7A825E",
"V 	c #81845A",
"W 	c #838458",
"X 	c #818459",
"Y 	c #7B835E",
"Z 	c #718165",
"` 	c #637F6F",
" .	c #537C7A",
"..	c #3F7888",
"+.	c #0F2F3F",
"@.	c #051219",
"#.	c #18638D",
"$.	c #12567E",
"%.	c #071C27",
"&.	c #146EA3",
"*.	c #3B788C",
"=.	c #778261",
"-.	c #858456",
";.	c #8F864F",
">.	c #96874B",
",.	c #978749",
"'.	c #95874B",
").	c #8D8651",
"!.	c #728164",
"~.	c #617E71",
"{.	c #497A81",
"].	c #112E3A",
"^.	c #000000",
"/.	c #06151E",
"(.	c #1A6F9F",
"_.	c #126798",
":.	c #061721",
"<.	c #136EA2",
"[.	c #357790",
"}.	c #4D7B7E",
"|.	c #647F6E",
"1.	c #788260",
"2.	c #8B8553",
"3.	c #9A8847",
"4.	c #A58A40",
"5.	c #AC8B3B",
"6.	c #AC8B3A",
"7.	c #A88A3E",
"8.	c #9F8944",
"9.	c #91864E",
"0.	c #80835A",
"a.	c #6C8068",
"b.	c #537A79",
"c.	c #183B4A",
"d.	c #20698F",
"e.	c #13689A",
"f.	c #081E2B",
"g.	c #136DA1",
"h.	c #5F7E72",
"i.	c #8C8551",
"j.	c #A08943",
"k.	c #AF8B38",
"l.	c #BA8D30",
"m.	c #C18E2C",
"n.	c #467A84",
"o.	c #081D29",
"p.	c #1E719D",
"q.	c #898554",
"r.	c #B48C35",
"s.	c #C48F29",
"t.	c #CF9121",
"u.	c #D5921E",
"v.	c #D4911E",
"w.	c #CC9023",
"x.	c #BF8E2D",
"y.	c #667F6D",
"z.	c #4C7B80",
"A.	c #156999",
"B.	c #286F90",
"C.	c #497A82",
"D.	c #B28C36",
"E.	c #C78F27",
"F.	c #D8921B",
"G.	c #E59412",
"H.	c #EA950E",
"I.	c #E79510",
"J.	c #DD9318",
"K.	c #B78D32",
"L.	c #A18943",
"M.	c #878555",
"N.	c #507B7C",
"O.	c #2D708C",
"P.	c #081E28",
"Q.	c #34768F",
"R.	c #738164",
"S.	c #AB8B3C",
"T.	c #C38F2A",
"U.	c #DA921A",
"V.	c #ED960C",
"W.	c #FA9803",
"X.	c #FA9804",
"Y.	c #F99803",
"Z.	c #EB950D",
"`.	c #C18E2B",
" +	c #708166",
".+	c #49777C",
"++	c #081C25",
"@+	c #3D7382",
"#+	c #9E8845",
"$+	c #B98D31",
"%+	c #FA9906",
"&+	c #F79A10",
"*+	c #F69B12",
"=+	c #F89A0C",
"-+	c #F89804",
";+	c #E19414",
">+	c #C88F27",
",+	c #90864F",
"'+	c #091E2A",
")+	c #47767E",
"!+	c #E49412",
"~+	c #F59B14",
"{+	c #F4A425",
"]+	c #F4A627",
"^+	c #F59B16",
"/+	c #F99907",
"(+	c #E89510",
"_+	c #020507",
":+	c #081A21",
"<+	c #4E797A",
"[+	c #96874A",
"}+	c #B68C34",
"|+	c #F29609",
"1+	c #F79A0F",
"2+	c #F5A92C",
"3+	c #F8C44E",
"4+	c #F7C049",
"5+	c #F4A122",
"6+	c #F8990B",
"7+	c #CD9023",
"8+	c #0B1F29",
"9+	c #547772",
"0+	c #DE9317",
"a+	c #FB9803",
"b+	c #F49B18",
"c+	c #F8C14B",
"d+	c #FCE377",
"e+	c #FAD260",
"f+	c #F4A82A",
"g+	c #EB950E",
"h+	c #CB9024",
"i+	c #06131B",
"j+	c #122F3D",
"k+	c #687F6B",
"l+	c #A68A3F",
"m+	c #C58F29",
"n+	c #F99908",
"o+	c #F4A121",
"p+	c #F9D05D",
"q+	c #FEFB95",
"r+	c #F9D260",
"s+	c #F4A324",
"t+	c #F99909",
"u+	c #E69411",
"v+	c #256A89",
"w+	c #8C8552",
"x+	c #CA9025",
"y+	c #F9990A",
"z+	c #F9CB57",
"A+	c #FBDC6D",
"B+	c #F7BF47",
"C+	c #313121",
"D+	c #06161E",
"E+	c #1A6F9E",
"F+	c #8E8650",
"G+	c #CB9025",
"H+	c #F39C1A",
"I+	c #F6B73E",
"J+	c #F7BC44",
"K+	c #F4A526",
"L+	c #F79A0E",
"M+	c #423D24",
"N+	c #081E29",
"O+	c #18628B",
"P+	c #1571A7",
"Q+	c #347791",
"R+	c #527C7B",
"S+	c #C99026",
"T+	c #F39D1C",
"U+	c #F39C1B",
"V+	c #F69A11",
"W+	c #464227",
"X+	c #071921",
"Y+	c #115377",
"Z+	c #125A83",
"`+	c #136899",
" @	c #156998",
".@	c #2C6E89",
"+@	c #43747D",
"@@	c #5F7B6C",
"#@	c #A98A3D",
"$@	c #F49707",
"%@	c #46462D",
"&@	c #010406",
"*@	c #050F14",
"=@	c #06131A",
"-@	c #222821",
";@	c #433C22",
">@	c #454227",
",@	c #151D1B",
"                                                                ",
"                  . +                                           ",
"                @ # $ %                                         ",
"              & * = - ; %                                       ",
"            > , ' - - - ) !                                     ",
"          ~ , ' - - - - - { ]                                   ",
"        @ ^ ' - - - - - - - ) !                                 ",
"      / ( = - - _ : < : _ - - ) [                               ",
"    } | ' - - : 1 2 3 4 5 6 7 _ ; 8                             ",
"  9 0 = - - a b 3 c d e e f g h i j k                           ",
"  9 l - - - _ m n e o p q r s t u v i w                         ",
"    x y - - z 6 A B q C D E F G H I e J K           L M         ",
"      N O - - P Q R S T U V W X Y Z `  ...+.      @.#.$.        ",
"        %.&.- b *.R C =.-.;.>.,.'.).X !.~.{.].^./.(.- _.^.      ",
"          :.<.: [.}.|.1.2.3.4.5.6.7.8.9.0.a.b.c.d.- - e.^.      ",
"            f.g.2 e h.=.i.j.k.l.m.m.l.k.j.i.=.h.n.2 - e.^.      ",
"              o.p.c s T q.8.r.s.t.u.v.w.x.6.,.0.y.z.3 A.^.      ",
"                f.B.C.C 0.3.D.E.F.G.H.I.J.w.K.L.M.a.N.O.^.      ",
"                  P.Q.p R.;.S.T.U.V.W.X.Y.Z.F.`.7.i. +.+^.      ",
"                    ++@+` V #+$+u.V.%+&+*+=+-+;+>+6.,+R.^.      ",
"                      '+)+E i.S.>+!+X.~+{+]+^+/+(+w.k.9._+      ",
"                        :+<+1.[+}+v.|+1+2+3+4+5+6+Z.7+k.&       ",
"                          8+9+V j.x.0+a+b+c+d+e+f+=+g+h+i+      ",
"                            j+k+M.l+m+G.n+o+p+q+r+s+t+u+/.      ",
"                          i+v+}.a.w+S.x+(+y+s+z+A+B+b+a+C+      ",
"                        D+E+; 4 N.T F+6.G+(+n+H+I+J+K+L+M+      ",
"                      N+O+- - P+Q+R+ +F+5.S+!+X.*+T+U+V+W+      ",
"                      X+Y+Z+_.`+ @.@+@@@i.#@s.J.$@n+L+=+%@      ",
"                            ^.^.^.^.^.^.^.&@& *@=@-@;@>@,@      ",
"                                                                ",
"                                                                ",
"                                                                "};
