<?xml version="1.0" encoding="UTF-8" standalone="no"?>
<!-- Created with Inkscape (http://www.inkscape.org/) -->
<svg xmlns:rdf="http://www.w3.org/1999/02/22-rdf-syntax-ns#" xmlns="http://www.w3.org/2000/svg" version="1.0" xmlns:cc="http://creativecommons.org/ns#" xmlns:xlink="http://www.w3.org/1999/xlink" viewBox="0 0 16 16" xmlns:dc="http://purl.org/dc/elements/1.1/">
 <metadata>
  <rdf:RDF>
   <cc:Work rdf:about="">
    <dc:format>image/svg+xml</dc:format>
    <dc:type rdf:resource="http://purl.org/dc/dcmitype/StillImage"/>
    <dc:title/>
   </cc:Work>
  </rdf:RDF>
 </metadata>
 <defs>
  <linearGradient id="linearGradient4310" y2="35.079" gradientUnits="userSpaceOnUse" x2="90.221" gradientTransform="matrix(-0.20660788,-0.20808495,-0.18070961,0.18200148,31.006155,23.89946)" y1="35.152" x1="97.442">
   <stop stop-color="#f8c87e" offset="0"/>
   <stop stop-color="#efbd98" offset="0.26238"/>
   <stop stop-color="#e49472" offset="0.66347"/>
   <stop stop-color="#eb9243" offset="1"/>
  </linearGradient>
  <linearGradient id="linearGradient4318" y2="229.86" gradientUnits="userSpaceOnUse" x2="315.01" gradientTransform="matrix(-1,0,0,1,318.95988,-218.78595)" y1="230.78" x1="314.09">
   <stop stop-color="#c5c5be" offset="0"/>
   <stop stop-color="#dedede" offset="1"/>
  </linearGradient>
  <linearGradient id="linearGradient4320" y2="220.6" gradientUnits="userSpaceOnUse" x2="311" gradientTransform="matrix(-1,0,0,1,318.95988,-218.78595)" y1="234.93" x1="312.96">
   <stop stop-color="#000" offset="0"/>
   <stop stop-color="#727470" offset="1"/>
  </linearGradient>
 </defs>
 <path stroke-linejoin="round" style="enable-background:new;" d="m12.21,0.71405c0.37511,0.0471,0.77839,0.25308,1.1875,0.65625l-1.7188,1.6875c-0.3584,0.36046-0.34912,0.93023,0,1.2812l0.125,0.125c0.34912,0.35106,0.92283,0.36044,1.2812,0l1.6875-1.6875c1.1566,1.1398,0.64599,2.0684-0.125,2.8438l-0.46875,0.46875c-0.73274,0.7369-1.867,0.81164-2.6875,0.21875l-5.4375,5.4375-1.625-1.625,5.4375-5.4375c-0.5917-0.825-0.5453-1.9804,0.189-2.7185l0.46875-0.5c0.48639-0.48917,1.0623-0.82854,1.6875-0.75v0.00005z" fill-rule="evenodd" stroke-dashoffset="0.3612" stroke="url(#linearGradient4320)" stroke-linecap="round" stroke-miterlimit="4" stroke-dasharray="none" stroke-width="0.89999998" fill="url(#linearGradient4318)"/>
 <path stroke-linejoin="round" style="enable-background:new;" d="M6.4537,6.4017c-1.678,2.7399-7.7555,4.5573-5.9068,8.4633,3.1327,3.361,5.8506-2.561,7.9887-4.268,2.7674-1.476,0.3437-5.4274-2.0819-4.1953z" stroke-dashoffset="0.69999999999999996" stroke="#d37700" stroke-linecap="round" stroke-miterlimit="4" stroke-dasharray="none" stroke-width="0.70872383999999999" fill="url(#linearGradient4310)"/>
</svg>
