<?xml version="1.0" encoding="UTF-8" standalone="no"?>
<!-- Created with Inkscape (http://www.inkscape.org/) -->
<svg xmlns:rdf="http://www.w3.org/1999/02/22-rdf-syntax-ns#" xmlns="http://www.w3.org/2000/svg" version="1.1" xmlns:cc="http://creativecommons.org/ns#" xmlns:xlink="http://www.w3.org/1999/xlink" viewBox="0 0 16 16" xmlns:dc="http://purl.org/dc/elements/1.1/">
 <defs>
  <filter id="filter3802" height="1.48" width="1.48" color-interpolation-filters="sRGB" y="-0.23999999" x="-0.23999999">
   <feGaussianBlur stdDeviation="0.6937624"/>
  </filter>
  <radialGradient id="radialGradient3014-2" gradientUnits="userSpaceOnUse" cx="11.75" cy="17.413" r="10.752" gradientTransform="matrix(0.40855986,0,0,1.1442439,3.2094504,-8.314528)">
   <stop stop-color="#fffe99" offset="0"/>
   <stop stop-color="#e49218" offset="0.2"/>
   <stop stop-color="#601197" offset="1"/>
  </radialGradient>
 </defs>
 <metadata>
  <rdf:RDF>
   <cc:Work rdf:about="">
    <dc:format>image/svg+xml</dc:format>
    <dc:type rdf:resource="http://purl.org/dc/dcmitype/StillImage"/>
    <dc:title/>
   </cc:Work>
  </rdf:RDF>
 </metadata>
 <path d="m4.5112,0.99852,0,7.916-2.529,0,0,0.26729,2.9197,3.2898,2.6318,3.0225,0.98693,0,2.6729-3.0225,2.8169-3.2075,0-0.34954-2.7141,0,0-7.916-6.7851,0z" stroke="#25063a" stroke-dasharray="none" stroke-miterlimit="4" stroke-width="0.6404165" fill="url(#radialGradient3014-2)"/>
 <g fill-rule="evenodd" transform="matrix(0.63881522,0,0,0.63881522,1.2454322,5.1303407)">
  <g transform="translate(-2.0722772,0.58564357)" fill="#FFF">
   <path d="m-3.649,16.792c0,1.9158-1.553,3.4688-3.4688,3.4688s-3.4688-1.553-3.4688-3.4688,1.553-3.4688,3.4688-3.4688,3.4688,1.553,3.4688,3.4688z" transform="matrix(1.2613946,0,0,1.2613946,26.727887,-22.660647)" filter="url(#filter3802)" stroke="#FFF"/>
   <path d="m-3.649,16.792c0,1.9158-1.553,3.4688-3.4688,3.4688s-3.4688-1.553-3.4688-3.4688,1.553-3.4688,3.4688-3.4688,3.4688,1.553,3.4688,3.4688z" transform="translate(24.867327,-18.271287)" stroke="#000"/>
  </g>
  <rect height="3.649" width="0.99109" y="-2.6054" x="15.141" fill="#1a1a1a"/>
  <rect transform="matrix(0,-1,1,0,0,0)" height="3.649" width="0.99109" y="13.812" x="0.2854" fill="#1a1a1a"/>
 </g>
</svg>
